<?xml version="1.0" encoding="UTF-8" standalone="no"?>
<!DOCTYPE svg PUBLIC "-//W3C//DTD SVG 1.1//EN" "http://www.w3.org/Graphics/SVG/1.1/DTD/svg11.dtd">
<svg width="100%" height="100%" viewBox="0 0 200 26" version="1.1" xmlns="http://www.w3.org/2000/svg" xmlns:xlink="http://www.w3.org/1999/xlink" xml:space="preserve" xmlns:serif="http://www.serif.com/" style="fill-rule:evenodd;clip-rule:evenodd;stroke-linejoin:round;stroke-miterlimit:2;">
    <g transform="matrix(2.96586,0,0,2.96586,-111.109,-55.2024)">
        <g transform="matrix(12,0,0,12,36.5865,27.181)">
            <path d="M0.085,-0.702L0.188,-0.702C0.191,-0.702 0.194,-0.701 0.197,-0.699C0.2,-0.696 0.201,-0.693 0.201,-0.69L0.201,-0.218L0.56,-0.686C0.569,-0.697 0.58,-0.702 0.593,-0.702L0.72,-0.702C0.724,-0.702 0.727,-0.7 0.729,-0.697C0.73,-0.694 0.73,-0.691 0.728,-0.688L0.213,-0.018C0.204,-0.007 0.193,-0.002 0.18,-0.002L0.085,-0.002C0.082,-0.002 0.079,-0.003 0.077,-0.006C0.074,-0.008 0.073,-0.011 0.073,-0.014L0.073,-0.69C0.073,-0.693 0.074,-0.696 0.077,-0.699C0.079,-0.701 0.082,-0.702 0.085,-0.702Z" style="fill:rgb(229,0,50);fill-rule:nonzero;"/>
        </g>
        <g transform="matrix(12,0,0,12,41.3025,27.181)">
            <path d="M0.009,-0.014L0.523,-0.684C0.532,-0.695 0.543,-0.7 0.556,-0.7L0.651,-0.7C0.659,-0.7 0.663,-0.696 0.663,-0.688L0.663,-0.012C0.663,-0.004 0.659,-0 0.651,-0L0.556,-0C0.543,-0 0.532,-0.005 0.523,-0.016L0.35,-0.242L0.176,-0.016C0.167,-0.005 0.156,-0 0.143,-0L0.016,-0C0.013,-0 0.01,-0.002 0.008,-0.005C0.006,-0.008 0.006,-0.011 0.009,-0.014ZM0.433,-0.35L0.536,-0.216L0.536,-0.484L0.433,-0.35Z" style="fill:rgb(229,0,50);fill-rule:nonzero;"/>
        </g>
        <g transform="matrix(12,0,0,12,50.1105,27.181)">
            <path d="M0.085,-0.7L0.188,-0.7C0.197,-0.7 0.201,-0.696 0.201,-0.688L0.201,-0.127L0.481,-0.127C0.485,-0.127 0.488,-0.125 0.49,-0.122C0.491,-0.119 0.491,-0.116 0.489,-0.113L0.414,-0.016C0.405,-0.005 0.395,-0 0.382,-0L0.085,-0C0.082,-0 0.079,-0.001 0.077,-0.004C0.074,-0.006 0.073,-0.009 0.073,-0.012L0.073,-0.688C0.073,-0.691 0.074,-0.694 0.077,-0.697C0.079,-0.699 0.082,-0.7 0.085,-0.7Z" style="fill:rgb(229,0,50);fill-rule:nonzero;"/>
        </g>
        <g transform="matrix(12,0,0,12,56.0505,27.181)">
            <path d="M0.045,-0.353C0.045,-0.404 0.054,-0.452 0.074,-0.497C0.093,-0.541 0.118,-0.579 0.151,-0.612C0.183,-0.644 0.221,-0.669 0.265,-0.688C0.309,-0.706 0.356,-0.715 0.407,-0.714C0.458,-0.713 0.505,-0.703 0.549,-0.684C0.593,-0.665 0.631,-0.638 0.664,-0.605C0.696,-0.572 0.721,-0.533 0.74,-0.489C0.759,-0.444 0.768,-0.397 0.767,-0.347C0.766,-0.296 0.756,-0.249 0.737,-0.205C0.718,-0.161 0.692,-0.123 0.659,-0.09C0.626,-0.057 0.587,-0.032 0.543,-0.014C0.499,0.005 0.452,0.014 0.401,0.014C0.351,0.014 0.304,0.005 0.261,-0.015C0.217,-0.034 0.179,-0.059 0.147,-0.093C0.115,-0.126 0.09,-0.164 0.072,-0.209C0.054,-0.254 0.045,-0.302 0.045,-0.353ZM0.173,-0.348C0.173,-0.315 0.179,-0.284 0.192,-0.255C0.205,-0.226 0.222,-0.2 0.243,-0.178C0.264,-0.156 0.289,-0.139 0.317,-0.126C0.345,-0.113 0.375,-0.107 0.407,-0.107C0.438,-0.108 0.468,-0.115 0.496,-0.128C0.524,-0.141 0.549,-0.159 0.57,-0.182C0.591,-0.204 0.607,-0.23 0.619,-0.26C0.631,-0.289 0.637,-0.32 0.636,-0.353C0.636,-0.386 0.63,-0.417 0.617,-0.446C0.604,-0.475 0.587,-0.501 0.566,-0.523C0.545,-0.544 0.52,-0.561 0.492,-0.574C0.463,-0.587 0.433,-0.593 0.402,-0.593C0.371,-0.592 0.341,-0.586 0.313,-0.573C0.285,-0.56 0.261,-0.542 0.24,-0.52C0.219,-0.497 0.203,-0.471 0.191,-0.442C0.179,-0.413 0.173,-0.381 0.173,-0.348Z" style="fill:rgb(229,0,50);fill-rule:nonzero;"/>
        </g>
        <g transform="matrix(12,0,0,12,65.7585,27.181)">
            <path d="M0.073,-0.69C0.073,-0.693 0.074,-0.696 0.077,-0.699C0.079,-0.701 0.082,-0.702 0.085,-0.702L0.613,-0.702C0.616,-0.702 0.619,-0.701 0.622,-0.699C0.624,-0.696 0.625,-0.693 0.625,-0.69L0.625,-0.543C0.625,-0.534 0.622,-0.525 0.616,-0.518L0.458,-0.311L0.684,-0.016C0.686,-0.013 0.686,-0.01 0.685,-0.007C0.683,-0.004 0.68,-0.002 0.677,-0.002L0.55,-0.002C0.537,-0.002 0.526,-0.007 0.517,-0.018L0.298,-0.303C0.293,-0.308 0.293,-0.313 0.298,-0.318L0.495,-0.575L0.201,-0.575L0.201,-0.014C0.201,-0.006 0.197,-0.002 0.188,-0.002L0.085,-0.002C0.082,-0.002 0.079,-0.003 0.077,-0.006C0.074,-0.008 0.073,-0.011 0.073,-0.014L0.073,-0.69Z" style="fill:rgb(229,0,50);fill-rule:nonzero;"/>
        </g>
        <g transform="matrix(12,0,0,12,74.0745,27.181)">
            <path d="M0.085,-0.7L0.18,-0.7C0.193,-0.7 0.204,-0.695 0.213,-0.684L0.727,-0.014C0.73,-0.011 0.73,-0.008 0.729,-0.005C0.727,-0.002 0.724,-0 0.72,-0L0.593,-0C0.58,-0 0.569,-0.005 0.56,-0.016L0.387,-0.242L0.213,-0.016C0.204,-0.005 0.193,-0 0.18,-0L0.085,-0C0.082,-0 0.079,-0.001 0.077,-0.004C0.074,-0.006 0.073,-0.009 0.073,-0.012L0.073,-0.688C0.073,-0.691 0.074,-0.694 0.077,-0.697C0.079,-0.699 0.082,-0.7 0.085,-0.7ZM0.625,-0.688C0.625,-0.696 0.629,-0.7 0.638,-0.7L0.733,-0.7C0.746,-0.7 0.756,-0.695 0.765,-0.684L1.125,-0.216L1.125,-0.688C1.125,-0.696 1.129,-0.7 1.137,-0.7L1.24,-0.7C1.249,-0.7 1.253,-0.696 1.253,-0.688L1.253,-0.012C1.253,-0.009 1.252,-0.006 1.249,-0.004C1.246,-0.001 1.243,-0 1.24,-0L1.145,-0C1.132,-0 1.121,-0.005 1.112,-0.016L0.753,-0.484L0.753,-0.21C0.753,-0.206 0.751,-0.203 0.747,-0.202C0.743,-0.201 0.74,-0.202 0.737,-0.205L0.634,-0.339C0.628,-0.346 0.625,-0.355 0.625,-0.364L0.625,-0.688ZM0.201,-0.484L0.201,-0.216L0.304,-0.35L0.201,-0.484Z" style="fill:rgb(229,0,50);fill-rule:nonzero;"/>
        </g>
        <g transform="matrix(12,0,0,12,89.9745,27.181)">
            <path d="M0.038,-0.69C0.038,-0.693 0.039,-0.696 0.042,-0.699C0.044,-0.701 0.047,-0.702 0.05,-0.702L0.484,-0.702C0.497,-0.702 0.508,-0.697 0.517,-0.686L0.591,-0.589C0.594,-0.586 0.594,-0.583 0.593,-0.58C0.591,-0.577 0.588,-0.575 0.584,-0.575L0.361,-0.575L0.361,-0.014C0.361,-0.006 0.357,-0.002 0.349,-0.002L0.246,-0.002C0.238,-0.002 0.234,-0.006 0.234,-0.014L0.234,-0.575L0.05,-0.575C0.047,-0.575 0.044,-0.576 0.042,-0.579C0.039,-0.581 0.038,-0.584 0.038,-0.587L0.038,-0.69Z" style="fill:rgb(229,0,50);fill-rule:nonzero;"/>
        </g>
        <g transform="matrix(6,0,0,6,97.1505,27.181)">
            <path d="M0.084,-0.135L0.193,-0.135C0.202,-0.135 0.206,-0.131 0.206,-0.122L0.206,-0.012C0.206,-0.003 0.202,0.001 0.193,0.001L0.084,0.001C0.075,0.001 0.071,-0.003 0.071,-0.012L0.071,-0.122C0.071,-0.131 0.075,-0.135 0.084,-0.135Z" style="fill-rule:nonzero;"/>
        </g>
        <g transform="matrix(6,0,0,6,98.8125,27.181)">
            <path d="M0.009,-0.014L0.255,-0.335L0.255,-0.688C0.255,-0.691 0.256,-0.694 0.259,-0.697C0.261,-0.699 0.264,-0.7 0.267,-0.7L0.37,-0.7C0.379,-0.7 0.383,-0.696 0.383,-0.688L0.383,-0.299C0.383,-0.29 0.38,-0.281 0.374,-0.274L0.176,-0.016C0.167,-0.005 0.156,-0 0.143,-0L0.016,-0C0.013,-0 0.01,-0.002 0.008,-0.005C0.006,-0.008 0.006,-0.011 0.009,-0.014Z" style="fill-rule:nonzero;"/>
        </g>
        <g transform="matrix(6,0,0,6,101.537,27.181)">
            <path d="M0.054,-0.495C0.054,-0.526 0.061,-0.555 0.074,-0.582C0.087,-0.609 0.104,-0.632 0.127,-0.651C0.149,-0.67 0.175,-0.686 0.205,-0.697C0.234,-0.708 0.266,-0.714 0.299,-0.714C0.351,-0.714 0.396,-0.705 0.435,-0.687C0.473,-0.668 0.502,-0.647 0.521,-0.623C0.526,-0.617 0.525,-0.612 0.52,-0.607L0.451,-0.535C0.448,-0.532 0.445,-0.531 0.442,-0.531C0.438,-0.531 0.435,-0.533 0.432,-0.536C0.426,-0.543 0.419,-0.549 0.41,-0.556C0.401,-0.563 0.39,-0.569 0.379,-0.575C0.367,-0.58 0.354,-0.585 0.341,-0.588C0.328,-0.591 0.314,-0.593 0.3,-0.593C0.283,-0.593 0.268,-0.591 0.255,-0.586C0.241,-0.58 0.229,-0.574 0.22,-0.566C0.211,-0.558 0.203,-0.549 0.198,-0.538C0.193,-0.527 0.19,-0.516 0.19,-0.504C0.19,-0.485 0.196,-0.468 0.209,-0.454C0.222,-0.44 0.241,-0.43 0.266,-0.425L0.364,-0.406C0.396,-0.4 0.424,-0.391 0.449,-0.378C0.473,-0.365 0.493,-0.349 0.51,-0.331C0.526,-0.313 0.538,-0.293 0.547,-0.271C0.556,-0.248 0.56,-0.225 0.56,-0.2C0.56,-0.173 0.555,-0.147 0.544,-0.121C0.533,-0.095 0.516,-0.072 0.495,-0.051C0.473,-0.03 0.446,-0.014 0.415,-0.002C0.384,0.011 0.348,0.017 0.307,0.017C0.278,0.017 0.252,0.014 0.227,0.008C0.202,0.002 0.179,-0.006 0.159,-0.016C0.138,-0.025 0.12,-0.036 0.105,-0.048C0.09,-0.059 0.077,-0.071 0.067,-0.082C0.062,-0.087 0.062,-0.092 0.067,-0.098L0.13,-0.179C0.132,-0.182 0.135,-0.184 0.139,-0.185C0.142,-0.185 0.145,-0.184 0.148,-0.181C0.157,-0.172 0.168,-0.164 0.179,-0.155C0.19,-0.146 0.203,-0.137 0.216,-0.13C0.229,-0.123 0.244,-0.117 0.259,-0.112C0.274,-0.107 0.291,-0.105 0.308,-0.105C0.345,-0.105 0.373,-0.113 0.392,-0.129C0.411,-0.145 0.421,-0.166 0.421,-0.191C0.421,-0.211 0.414,-0.229 0.4,-0.244C0.385,-0.259 0.364,-0.269 0.336,-0.274L0.238,-0.294C0.182,-0.305 0.137,-0.328 0.104,-0.363C0.071,-0.398 0.054,-0.442 0.054,-0.495Z" style="fill-rule:nonzero;"/>
        </g>
    </g>
</svg>
